<svg width="40" height="40" viewBox="0 0 40 40" fill="none" xmlns="http://www.w3.org/2000/svg">
<path d="M0 20C0 8.95431 8.95431 0 20 0V0C31.0457 0 40 8.95431 40 20V20C40 31.0457 31.0457 40 20 40V40C8.95431 40 0 31.0457 0 20V20Z" fill="#F9F9F9"/>
<path d="M20 11C18.34 11 17 12.37 17 14.07V19.93C17 21.63 18.34 23 20 23C21.66 23 23 21.63 23 19.93V14.07C23 12.37 21.66 11 20 11ZM26.5 20H25.5C25.5 23.03 23.03 25.5 20 25.5C16.97 25.5 14.5 23.03 14.5 20H13.5C13.5 23.24 15.89 25.93 19 26.41V29H21V26.41C24.11 25.93 26.5 23.24 26.5 20Z" fill="black"/>
</svg>
